<svg width="285" height="73" viewBox="0 0 285 73" fill="none" xmlns="http://www.w3.org/2000/svg">
<path d="M105.5 72L64.3638 0.749992L146.636 0.749999L105.5 72Z" fill="#00B8A9"/>
<path d="M200.5 73L159.364 1.74999L241.636 1.75L200.5 73Z" fill="#00B8A9"/>
<path d="M153.5 1L194.636 72.25H112.364L153.5 1Z" fill="#FFDE7D"/>
<path d="M58.5 1L99.6362 72.25H17.3638L58.5 1Z" fill="#FFDE7D"/>
<path d="M1.476 22.8H5.436V33.06H9.684V22.8H13.644V48H9.684V36.66H5.436V48H1.476V22.8ZM16.5932 22.8H27.3932V26.4H20.5532V33.06H25.9892V36.66H20.5532V44.4H27.3932V48H16.5932V22.8ZM32.7313 22.8H38.0953L42.1993 48H38.2393L37.5193 42.996V43.068H33.0193L32.2993 48H28.6273L32.7313 22.8ZM37.0513 39.648L35.2873 27.192H35.2153L33.4873 39.648H37.0513ZM44.1205 22.8H48.0805V44.4H54.5965V48H44.1205V22.8ZM56.779 26.4H52.639V22.8H64.879V26.4H60.739V48H56.779V26.4ZM66.7963 22.8H70.7563V33.06H75.0043V22.8H78.9643V48H75.0043V36.66H70.7563V48H66.7963V22.8ZM93.2591 48.36C91.3631 48.36 89.9111 47.82 88.9031 46.74C87.9191 45.66 87.4271 44.136 87.4271 42.168V28.632C87.4271 26.664 87.9191 25.14 88.9031 24.06C89.9111 22.98 91.3631 22.44 93.2591 22.44C95.1551 22.44 96.5951 22.98 97.5791 24.06C98.5871 25.14 99.0911 26.664 99.0911 28.632V31.296H95.3471V28.38C95.3471 26.82 94.6871 26.04 93.3671 26.04C92.0471 26.04 91.3871 26.82 91.3871 28.38V42.456C91.3871 43.992 92.0471 44.76 93.3671 44.76C94.6871 44.76 95.3471 43.992 95.3471 42.456V38.604H99.0911V42.168C99.0911 44.136 98.5871 45.66 97.5791 46.74C96.5951 47.82 95.1551 48.36 93.2591 48.36ZM107.255 48.36C105.311 48.36 103.823 47.808 102.791 46.704C101.759 45.6 101.243 44.04 101.243 42.024V28.776C101.243 26.76 101.759 25.2 102.791 24.096C103.823 22.992 105.311 22.44 107.255 22.44C109.199 22.44 110.687 22.992 111.719 24.096C112.751 25.2 113.267 26.76 113.267 28.776V42.024C113.267 44.04 112.751 45.6 111.719 46.704C110.687 47.808 109.199 48.36 107.255 48.36ZM107.255 44.76C108.623 44.76 109.307 43.932 109.307 42.276V28.524C109.307 26.868 108.623 26.04 107.255 26.04C105.887 26.04 105.203 26.868 105.203 28.524V42.276C105.203 43.932 105.887 44.76 107.255 44.76ZM115.945 22.8H120.913L124.765 37.884H124.837V22.8H128.365V48H124.297L119.545 29.604H119.473V48H115.945V22.8ZM134.404 26.4H130.264V22.8H142.504V26.4H138.364V48H134.404V26.4ZM144.421 22.8H150.289C152.329 22.8 153.817 23.28 154.753 24.24C155.689 25.176 156.157 26.628 156.157 28.596V30.144C156.157 32.76 155.293 34.416 153.565 35.112V35.184C154.525 35.472 155.197 36.06 155.581 36.948C155.989 37.836 156.193 39.024 156.193 40.512V44.94C156.193 45.66 156.217 46.248 156.265 46.704C156.313 47.136 156.433 47.568 156.625 48H152.593C152.449 47.592 152.353 47.208 152.305 46.848C152.257 46.488 152.233 45.84 152.233 44.904V40.296C152.233 39.144 152.041 38.34 151.657 37.884C151.297 37.428 150.661 37.2 149.749 37.2H148.381V48H144.421V22.8ZM149.821 33.6C150.613 33.6 151.201 33.396 151.585 32.988C151.993 32.58 152.197 31.896 152.197 30.936V28.992C152.197 28.08 152.029 27.42 151.693 27.012C151.381 26.604 150.877 26.4 150.181 26.4H148.381V33.6H149.821ZM164.665 48.36C162.721 48.36 161.233 47.808 160.201 46.704C159.169 45.6 158.653 44.04 158.653 42.024V28.776C158.653 26.76 159.169 25.2 160.201 24.096C161.233 22.992 162.721 22.44 164.665 22.44C166.609 22.44 168.097 22.992 169.129 24.096C170.161 25.2 170.677 26.76 170.677 28.776V42.024C170.677 44.04 170.161 45.6 169.129 46.704C168.097 47.808 166.609 48.36 164.665 48.36ZM164.665 44.76C166.033 44.76 166.717 43.932 166.717 42.276V28.524C166.717 26.868 166.033 26.04 164.665 26.04C163.297 26.04 162.613 26.868 162.613 28.524V42.276C162.613 43.932 163.297 44.76 164.665 44.76ZM173.355 22.8H177.315V44.4H183.831V48H173.355V22.8ZM196.644 48.36C194.724 48.36 193.272 47.82 192.288 46.74C191.304 45.636 190.812 44.064 190.812 42.024V40.584H194.556V42.312C194.556 43.944 195.24 44.76 196.608 44.76C197.28 44.76 197.784 44.568 198.12 44.184C198.48 43.776 198.66 43.128 198.66 42.24C198.66 41.184 198.42 40.26 197.94 39.468C197.46 38.652 196.572 37.68 195.276 36.552C193.644 35.112 192.504 33.816 191.856 32.664C191.208 31.488 190.884 30.168 190.884 28.704C190.884 26.712 191.388 25.176 192.396 24.096C193.404 22.992 194.868 22.44 196.788 22.44C198.684 22.44 200.112 22.992 201.072 24.096C202.056 25.176 202.548 26.736 202.548 28.776V29.82H198.804V28.524C198.804 27.66 198.636 27.036 198.3 26.652C197.964 26.244 197.472 26.04 196.824 26.04C195.504 26.04 194.844 26.844 194.844 28.452C194.844 29.364 195.084 30.216 195.564 31.008C196.068 31.8 196.968 32.76 198.264 33.888C199.92 35.328 201.06 36.636 201.684 37.812C202.308 38.988 202.62 40.368 202.62 41.952C202.62 44.016 202.104 45.6 201.072 46.704C200.064 47.808 198.588 48.36 196.644 48.36ZM208.315 37.272L203.527 22.8H207.739L210.439 32.052H210.511L213.211 22.8H217.063L212.275 37.272V48H208.315V37.272ZM223.433 48.36C221.513 48.36 220.061 47.82 219.077 46.74C218.093 45.636 217.601 44.064 217.601 42.024V40.584H221.345V42.312C221.345 43.944 222.029 44.76 223.397 44.76C224.069 44.76 224.573 44.568 224.909 44.184C225.269 43.776 225.449 43.128 225.449 42.24C225.449 41.184 225.209 40.26 224.729 39.468C224.249 38.652 223.361 37.68 222.065 36.552C220.433 35.112 219.293 33.816 218.645 32.664C217.997 31.488 217.673 30.168 217.673 28.704C217.673 26.712 218.177 25.176 219.185 24.096C220.193 22.992 221.657 22.44 223.577 22.44C225.473 22.44 226.901 22.992 227.861 24.096C228.845 25.176 229.337 26.736 229.337 28.776V29.82H225.593V28.524C225.593 27.66 225.425 27.036 225.089 26.652C224.753 26.244 224.261 26.04 223.613 26.04C222.293 26.04 221.633 26.844 221.633 28.452C221.633 29.364 221.873 30.216 222.353 31.008C222.857 31.8 223.757 32.76 225.053 33.888C226.709 35.328 227.849 36.636 228.473 37.812C229.097 38.988 229.409 40.368 229.409 41.952C229.409 44.016 228.893 45.6 227.861 46.704C226.853 47.808 225.377 48.36 223.433 48.36ZM234.775 26.4H230.635V22.8H242.875V26.4H238.735V48H234.775V26.4ZM244.792 22.8H255.592V26.4H248.752V33.06H254.188V36.66H248.752V44.4H255.592V48H244.792V22.8ZM257.871 22.8H263.523L266.043 40.836H266.115L268.635 22.8H274.287V48H270.543V28.92H270.471L267.591 48H264.279L261.399 28.92H261.327V48H257.871V22.8Z" fill="black"/>
</svg>
